# Blender 3.4.0
# www.blender.org
mtllib windowcar.mtl
o Mitsubishi.Body_1
v 2.687142 5.742723 -8.963024
v 1.860252 7.520910 -6.456926
v 2.884567 7.428646 -6.205557
v 3.754810 5.785867 -8.675412
v 4.050189 5.517916 -4.560891
v 4.050291 5.585717 -6.071104
v 3.687365 6.250516 -6.440444
v 3.368604 7.185590 -5.253944
v 1.894636 7.386170 1.700101
v -0.025201 7.397184 1.821681
v -0.028447 5.192999 5.094558
v 2.308329 5.187972 4.997358
v 3.817641 5.251762 4.633418
v 2.942231 7.234423 1.593096
v 3.228628 7.314084 -0.367524
v 3.228397 7.158616 0.955354
v 4.080964 5.359766 1.366560
v 4.081074 5.431686 -1.229581
v 3.260756 7.420180 -4.528716
v 4.080858 5.291180 3.997412
v 4.050148 5.491679 -3.486346
v 3.260810 7.458520 -3.288048
v 3.260844 7.483076 -2.354648
v 4.050044 5.422836 -2.066510
v -0.027609 5.745980 -9.266172
v -0.024959 7.551681 -6.446754
v 3.228869 7.476601 -1.599010
v 4.050341 5.618770 -6.828245
v -2.742359 5.750705 -8.963034
v -3.809896 5.796988 -8.675426
v -2.934836 7.437201 -6.205568
v -1.910253 7.526453 -6.456933
v -4.106076 5.529905 -4.560905
v -3.419589 7.195569 -5.253956
v -3.741093 6.261436 -6.440457
v -4.105974 5.597707 -6.071118
v -1.945062 7.391814 1.700094
v -2.365187 5.194841 4.997349
v -2.993098 7.243148 1.593086
v -3.874303 5.263070 4.633404
v -3.279253 7.323650 -0.367536
v -4.137226 5.443767 -1.229596
v -4.137336 5.371847 1.366545
v -3.279484 7.168182 0.955342
v -3.311054 7.429840 -4.528728
v -4.137442 5.303261 3.997398
v -4.106116 5.503668 -3.486361
v -4.106220 5.434825 -2.066525
v -3.310965 7.492736 -2.354659
v -3.310999 7.468181 -3.288060
v -3.279012 7.486167 -1.599022
v -4.105923 5.630759 -6.828259
vn 0.9042 0.4271 0.0024
vn 0.8545 0.5142 -0.0736
vn 0.8455 0.5330 -0.0340
vn 0.9151 0.4029 0.0134
vn 0.8407 0.5347 0.0856
vn 0.8924 0.4502 0.0315
vn 0.9219 0.3872 0.0143
vn 0.8655 0.4975 -0.0592
vn 0.8739 0.4823 0.0606
vn 0.9064 0.4224 0.0074
vn 0.8873 0.4600 0.0335
vn 0.8913 0.4533 0.0088
vn -0.9029 0.4298 0.0024
vn -0.8439 0.5355 -0.0340
vn -0.8530 0.5167 -0.0736
vn -0.9139 0.4056 0.0134
vn -0.8910 0.4529 0.0315
vn -0.8391 0.5371 0.0856
vn -0.9207 0.3899 0.0143
vn -0.8725 0.4849 0.0606
vn -0.8640 0.5000 -0.0592
vn -0.9051 0.4251 0.0074
vn -0.8900 0.4559 0.0088
vn -0.8859 0.4626 0.0335
vn 0.0909 0.8404 -0.5342
vn 0.0965 0.8356 -0.5408
vn 0.2799 0.8898 -0.3605
vn 0.1073 0.9175 -0.3829
vn 0.0924 0.8918 0.4428
vn 0.0013 0.8843 0.4669
vn 0.0012 0.8428 0.5382
vn 0.0528 0.8463 0.5300
vn 0.1330 0.8533 0.5042
vn 0.3266 0.8636 0.3841
vn 0.9056 0.4240 0.0068
vn 0.8588 0.5123 0.0014
vn 0.8533 0.5204 0.0341
vn 0.8798 0.4725 0.0514
vn 0.0012 0.8411 -0.5409
vn 0.0012 0.8445 -0.5355
vn -0.0885 0.8407 -0.5342
vn -0.1046 0.9179 -0.3829
vn -0.2772 0.8906 -0.3605
vn -0.0941 0.8359 -0.5408
vn -0.0898 0.8921 0.4428
vn -0.0504 0.8465 0.5300
vn -0.3241 0.8646 0.3841
vn -0.1305 0.8537 0.5042
vn -0.9044 0.4267 0.0068
vn -0.8784 0.4751 0.0514
vn -0.8517 0.5229 0.0341
vn -0.8573 0.5148 0.0014
vt 0.727020 0.173260
vt 0.788510 0.194890
vt 0.795190 0.168180
vt 0.734380 0.145430
vt 0.966600 0.143560
vt 0.966340 0.104160
vt 0.947760 0.094000
vt 0.921120 0.124030
vt 0.617410 0.292260
vt 0.614270 0.242200
vt 0.525370 0.242200
vt 0.527880 0.303120
vt 0.537420 0.342470
vt 0.619890 0.319570
vt 0.286110 0.089160
vt 0.289110 0.123750
vt 0.339320 0.135480
vt 0.339320 0.067800
vt 0.913860 0.142710
vt 0.339210 0.204070
vt 0.966230 0.171570
vt 0.911690 0.174970
vt 0.910180 0.199250
vt 0.966600 0.208620
vt 0.719180 0.244040
vt 0.788720 0.244040
vt 0.282870 0.056940
vt 0.966240 0.084410
vt 0.727020 0.314810
vt 0.734380 0.342640
vt 0.795190 0.319890
vt 0.788510 0.293190
vt 0.966600 0.287890
vt 0.921120 0.307420
vt 0.947760 0.337450
vt 0.966340 0.327290
vt 0.617410 0.192150
vt 0.527880 0.181280
vt 0.619890 0.164840
vt 0.537420 0.141940
vt 0.180280 0.280860
vt 0.233480 0.302220
vt 0.233480 0.234530
vt 0.183280 0.246260
vt 0.913860 0.288740
vt 0.233370 0.165940
vt 0.966230 0.259880
vt 0.966600 0.222830
vt 0.910180 0.232200
vt 0.911690 0.256480
vt 0.177030 0.313080
vt 0.966240 0.347040
s 1
usemtl windows
f 5/5/1 8/8/2 19/19/3
f 17/17/4 16/16/5 20/20/6
f 18/18/7 27/27/8 15/15/9
f 6/6/10 28/28/11 7/7/12
f 33/33/13 45/45/14 34/34/15
f 43/43/16 46/46/17 44/44/18
f 42/42/19 41/41/20 51/51/21
f 36/36/22 35/35/23 52/52/24
f 1/1/25 2/2/26 3/3/27
f 1/1/25 3/3/27 4/4/28
f 5/5/1 6/6/10 7/7/12
f 5/5/1 7/7/12 8/8/2
f 9/9/29 10/10/30 11/11/31
f 9/9/29 11/11/31 12/12/32
f 12/12/32 13/13/33 14/14/34
f 12/12/32 14/14/34 9/9/29
f 15/15/9 16/16/5 17/17/4
f 15/15/9 17/17/4 18/18/7
f 21/21/35 22/22/36 23/23/37
f 21/21/35 23/23/37 24/24/38
f 25/25/39 26/26/40 2/2/26
f 25/25/39 2/2/26 1/1/25
f 21/21/35 5/5/1 19/19/3
f 21/21/35 19/19/3 22/22/36
f 29/29/41 30/30/42 31/31/43
f 29/29/41 31/31/43 32/32/44
f 33/33/13 34/34/15 35/35/23
f 33/33/13 35/35/23 36/36/22
f 37/37/45 38/38/46 11/11/31
f 37/37/45 11/11/31 10/10/30
f 38/38/46 37/37/45 39/39/47
f 38/38/46 39/39/47 40/40/48
f 41/41/20 42/42/19 43/43/16
f 41/41/20 43/43/16 44/44/18
f 47/47/49 48/48/50 49/49/51
f 47/47/49 49/49/51 50/50/52
f 25/25/39 29/29/41 32/32/44
f 25/25/39 32/32/44 26/26/40
f 47/47/49 50/50/52 45/45/14
f 47/47/49 45/45/14 33/33/13
